<mxfile host="65bd71144e">
    <diagram id="HIP3nbAZw_EuaXWnEj3U" name="Page-1">
        <mxGraphModel dx="1086" dy="743" grid="1" gridSize="10" guides="1" tooltips="1" connect="1" arrows="1" fold="1" page="1" pageScale="1" pageWidth="850" pageHeight="1100" math="0" shadow="0">
            <root>
                <mxCell id="0"/>
                <mxCell id="1" parent="0"/>
                <mxCell id="7" value="http://ics2o.mths.ca" style="swimlane;whiteSpace=wrap;html=1;" parent="1" vertex="1">
                    <mxGeometry x="45" y="40" width="760" height="480" as="geometry"/>
                </mxCell>
                <mxCell id="9" value="&lt;h1&gt;Volume of a sphere, with query strings&lt;/h1&gt;" style="text;html=1;strokeColor=none;fillColor=none;spacing=5;spacingTop=-20;whiteSpace=wrap;overflow=hidden;rounded=0;" vertex="1" parent="7">
                    <mxGeometry x="10" y="90" width="510" height="40" as="geometry"/>
                </mxCell>
                <mxCell id="11" value="Formula:&amp;nbsp;V = 4/3πr³" style="text;html=1;strokeColor=none;fillColor=none;align=center;verticalAlign=middle;whiteSpace=wrap;rounded=0;" vertex="1" parent="7">
                    <mxGeometry x="-10" y="120" width="160" height="30" as="geometry"/>
                </mxCell>
                <mxCell id="12" value="&lt;font style=&quot;font-size: 20px;&quot;&gt;The radius is: &lt;span style=&quot;font-weight: normal;&quot;&gt;4&lt;/span&gt;&lt;/font&gt;" style="text;strokeColor=none;fillColor=none;html=1;fontSize=24;fontStyle=1;verticalAlign=middle;align=center;" vertex="1" parent="7">
                    <mxGeometry x="-15" y="140" width="210" height="40" as="geometry"/>
                </mxCell>
                <mxCell id="14" value="" style="shape=image;verticalLabelPosition=bottom;labelBackgroundColor=default;verticalAlign=top;aspect=fixed;imageAspect=0;image=data:image/jpeg,/9j/4AAQSkZJRgABAQEAYABgAAD//gA7Q1JFQVRPUjogZ2QtanBlZyB2MS4wICh1c2luZyBJSkcgSlBFRyB2ODApLCBxdWFsaXR5ID0gODIK/9sAQwAGBAQFBAQGBQUFBgYGBwkOCQkICAkSDQ0KDhUSFhYVEhQUFxohHBcYHxkUFB0nHR8iIyUlJRYcKSwoJCshJCUk/9sAQwEGBgYJCAkRCQkRJBgUGCQkJCQkJCQkJCQkJCQkJCQkJCQkJCQkJCQkJCQkJCQkJCQkJCQkJCQkJCQkJCQkJCQk/8AAEQgBgAMAAwEiAAIRAQMRAf/EAB8AAAEFAQEBAQEBAAAAAAAAAAABAgMEBQYHCAkKC//EALUQAAIBAwMCBAMFBQQEAAABfQECAwAEEQUSITFBBhNRYQcicRQygZGhCCNCscEVUtHwJDNicoIJChYXGBkaJSYnKCkqNDU2Nzg5OkNERUZHSElKU1RVVldYWVpjZGVmZ2hpanN0dXZ3eHl6g4SFhoeIiYqSk5SVlpeYmZqio6Slpqeoqaqys7S1tre4ubrCw8TFxsfIycrS09TV1tfY2drh4uPk5ebn6Onq8fLz9PX29/j5+v/EAB8BAAMBAQEBAQEBAQEAAAAAAAABAgMEBQYHCAkKC//EALURAAIBAgQEAwQHBQQEAAECdwABAgMRBAUhMQYSQVEHYXETIjKBCBRCkaGxwQkjM1LwFWJy0QoWJDThJfEXGBkaJicoKSo1Njc4OTpDREVGR0hJSlNUVVZXWFlaY2RlZmdoaWpzdHV2d3h5eoKDhIWGh4iJipKTlJWWl5iZmqKjpKWmp6ipqrKztLW2t7i5usLDxMXGx8jJytLT1NXW19jZ2uLj5OXm5+jp6vLz9PX29/j5+v/aAAwDAQACEQMRAD8A+qaKKKACiiigAooooAKKKKACiiigBKWkpaACkpaSgBaKKKACiiigAooooAKKKKACiiigAooooAKKKKACiiigAooooAKKKKACiiigAooooAKKKKACiiigAooooAKKKKACiiigAooooAKKKKACiiigAooooAKKKKACiiigAooooAKKKKACiiigAooooAKKKKACiiigAooooAKKKKACiiigAooooAKKKKACiiigAooooAKKKKACiiigAooooAKKKKACiiigAooooAKKKKACiiigAooooAKKKKACiiigAooooAKKKKACiiigAooooAKKKKACiiigAooooAKKKKACiiigApKWigAooooASloooAKSlooAKKKKAEpaKKACkpaKACiiigBKWiigApKWigAooooASloooAKSlooAKKKKAEpaKKACiiigAooooAKKKKACiiigAooooAKKKKACiiigAooooAKKKKACiiigAooooAKKKKACiiigAooooAKKKKACiiigAooooAKKKKACiiigAooooAKKKKACiiigAooooAKKKKACiiigAooooAKKKKACiiigAooooAKKKKACiiigAooooAKKKKACiiigAooooAKKKKACiiigAooooAKKKKACiiigAooooAKKKKACiiigAooooAKKKKACiiigAooooAKKKKACiiigAooooAKKKKACiiigAooooAKKKKACiiigAooooAKKKKACiiigAooooAKKKKACiiigAooooAKKKKACiiigAooooAKKKKACiiigAooooAKKKKACiiigAooooAKKKKACiiigAooooAKKKKACiiigAooooAKKKKACiiigAooooAKKKKACiiigAooooAKKKKACiiigAooooAKKKKACiiigAooooAKKKKACiiigAooooAKKKKACiiigAooooAKKKKACiiigAooooAKKKKACiiigAopM0ZFAC0UmaM0ALRSZAoyKAFopMg0tABRRRQAUUUUAFFFFABRRRQAUUUUAFFFFABRRRQAUUUUAFFFFABRRRQAUUUUAFFFFABRRRQAUUUUAFFFFABRSUtABRRSUALRRRQAUUUUAFFFFABRRRQAUUUUAFFFFABRRRQAUUUUAFFFFABRRRQAUUUUAFFFFABRRRQAUUUUAFFFFABRRRQAUUUUAFFFFABRRRQAUUUUAFFFFABRRRQAUUUUAFFFFABRRSFgtABQTzUN1e29lA9xczRwwoMs8jBQB7k14v46/ar8HeG5Xs9CSfxHqH3QlrxEG9C/f/gINAHtu4e/FZmueKtB8Mwedres6fpseMg3Vwkefpk8182jUv2hfjD81lEvhHR5ekg/cEqf9s5kP1XFbOhfscaZNN9t8Y+KNS1i6f5pBCdgJ93fczfpQB1uvftVfDDRWZYdVutVdeosbdmH/AH0+0H8DXFXX7aNhPKYND8F6lfufu75wpP8AwFVb+der6B8Bfht4cVfsnhHTZXXH7y8Q3LZ9f3hOPwxXbWmnWmnwiGytoLaIdEhjCKPwFAHzb/w0n8VNRG7SvhPfOp6E2d1IPzUCgfHb47nkfCc7ffTrrP8A6FX01jijFAHzL/w0X8X7L5tR+Et4q92SwulH5kGnRftktYSCLxB4C1CybuROVP8A3y6D+dfTGKjntobmMxzRpKh6q6hgfwNAHjGhftcfDTVSq3lxqWkseCbq1LKD9Yy36ivTfDvj7wr4tAOheIdM1FiM+XBcK0gHumdw/EVk678GPh74jVxqPhDSGZ/vSQwCBz/wKPaf1rzLxH+xt4TvGM/h3V9S0W4B3KrETxg9sZww+u40AfQAYHpyKXNfLbaB+0J8Ivn0zVP+Es0qLnynY3B2+mGxIOP7pxXSeD/2ttDurpdO8aaTdeHL4Ha0hUvDnpzwGX8Rj3oA+gaSqWla5puu2cd7pd7b3ttIMpLBIHUj6iruaAFooooASloooAKSlooAKKKKAEpaKKACkpaKACiiigBKWiigApKWigAooooAKKKKACiiigApKWigAooooASloooAKKKKACiiigAooooAKKKKACiiigAooooAKKKKACiiigAooooAKKKKACiiigAooooAKKKKACiiigAooooAKKKKACiiigAooooAKKKKACiiigAooooAKKKKACiiigAopKq6nqlno9lNf6hcxWtpAhklmlYKqKO5JoAss4UevtXkXxT/AGjfDXgF306wI1rWvuC1t2ysbdt7Dv7DmvOfGXxn8YfGbXJvBnwqtZ4bLlbnUjlCydCS3/LNP/Hj+lejfCf9nLw38PUj1HUMazrpwz3U65WJu/lqen1PNAHmNj8Pfir8e7hNR8ZalLoGgud0dmoKll9k/q1e3eA/gh4J+H8SNpmkxTXajm7ugJJSfUZ4H4V3gQDpxTgMDFADdhwBmnDgUtJQAtFFFABRSUtABRRSUALSHpS0UANKZrlvGfww8J+PLZote0e3uXxhbhV2yr7hxz+ddV2prN8pNAHyD8Qvh/r37ON1b6/4M8XSJZXU+xbC4b5nOM4K9GGO/Br0b4Y/tSaVr9xFo/jGD+wtVOFEjgiGUnpyfu59+K4XU5JP2ivj7HYwOZfC/h4nc4Pyuit8zZ/22wB7CvcfiP8ABDwn8R9PEd3ZpZX0SbYL23ULJHjoCOjD2NAHoEc8c0ayRurowyGU5BHtTwc18maf4u+IH7M2qxaR4oil1zwlJJshuEOdo/6ZsejY52H8+9fTPhTxdovjPRoNY0K/jvrObo6HlG7qy9VYdwaANuimhs5GOlOoAKKKSgBaKKKACikpaACiikoAWiiigAopKWgAoopKAFooooAKKKKACiiigAoopKACloooAKSiloAKKKKACiiigAooooAKKKKACiiigAooooAKKKKACiiigAooooAKKKKACiiigAooooAKKKKACiiigAooooAKKKKACiiigAooooAKKKKACiiigAooooAKKKKACkJxQapaxq9loWm3Gp6jcRW1paxmWaWQ4CKOtAFfxL4l0vwno1xrGsXUdrZ26ku7Hr7D1J9K+Xbm68Y/tVeJWtbRptH8EWMuSTxvx3P95z2HQUSTa/8AtWeOmhiM+neCNLlzk8b/AHPq7enYV9ReGvDemeFdHt9I0i2W2s7ddqIox+J9SfWgCl4H8C6D4B0OLSNBsltoE5duryt3Z26k10QGKANoxS0AFFFFABRRRQAUUUUAFFFFABRRRQAUUUhOBmgAPSvH/wBpb4nf8IH4ElsLGXZq+shra32n5o0PEj/gDge59q9cuLiK2t5J53WOONS7sxwFA5Jr5S8L28v7Q3x6n1+6QyeGtAYeUjD5WCk+Wv8AwJssfYUAetfs3/DT/hXngGB7yHZq+qbbm6yPmQEfJH+AOT7k16vjjrQFwc0tAGfrmhaZ4i0ufS9Xs4byyuV2SwzDKsP6HuCOQa+W/E3grxb+zP4kfxT4Mlnv/Cs7j7VZuSwjX+7IB6dn/P3+syM1XvbOC9tZba5hSeGZSjxyLkMp6gigDm/hz8SNE+JXh+LWNHm6gLNbsfngfurD+veusByK+T/HXgvXP2c/Fy+NvB3mS+HLmQC8s8krGCfun/Z9D2r6O8CeN9J8f+HLbXNHmEkEwwyZ+aJ+6N7igDo6KQHNLQAUUUUAFFFFABRRRQAUUUUAFFFFABRRRQAUUUUAFFFFABRRRQAUUUUAFFFFABRRRQAUUUUAFFFFABRRRQAUUUUAFFFFABRRRQAUUUUAFFFFABRRRQAUUUUAFFFFABRRRQAUUUUAFFFFABRRRQAUUUUAFFFFABRRRQAUUUUAFFFFABRRRQAUUUjHAoAR22jJ/Ovlb4qeKtX+PXxAg+GvhCYrotpJuv7teUYqfmc+qr0A/ib9O9/aW+Kc/hLQY/DWisza7rP7pBFy8UZ4JHuc4Fb3wE+FMHw18HotzGr6zqAE19L3yeRH9Fz+JzQB2PgzwZpHgfw7a6Do1uIbW2XAbHzSN3Zj3Ynmt4KFGBQBiloAKKKKAEpaKKACkpaKACiiigBKWiigApKWigApD0NLTXJVGIGSBwPWgDwv9qf4iTeHfC8PhXSnZtX1w+VtjPzLFnB/FiQK7P4HfDqP4b+BLLTWRft9wPtF44/ilYdM+wwPwrgPDvwi8WeJ/jZc+OfHNnFBYWjbtPtxOkvThBhScYHPPc19ABQvrQA6kpaKACkIzS0UAUtV0qy1jT7jT7+3S4trlDHJE4yGU18qhtT/AGV/ieA32i58Ea03udgz1H+2mfxH6fWzKG69q5b4k+AdN+I/hO70HUVUCQb4JiMm3lH3XH07juCRQB0VjeW+oWkN5aTJPbTossUsbZWRGGQQe4INT181/s2ePdS8K6zffCXxWTFeWErixLn0OWjB7g/eX6n2r6UUk0ALRRRQAlLRRQAUlLRQAUUUUAJS0UUAFFFFABRRRQAUUUUAFFFFABRRRQAUUUUAFFFFABRRRQAUUUUAFFFFABRRRQAUUUUAFFFFABRRRQAUUUUAFFFFABRRRQAUUUUAFFFFABRRRQAUUUUAFFFFABRRRQAUUUUAFFFFABRRRQAUUUUAFFFFABVHXNWtdB0m71S+lWK2tImmkdjgAAZq6frXz3+1j4xuTp2k/D/SWZ9Q12VWlRPveUGwB/wJv/QTQBzvwU0a7+MvxS1P4m63GWsLKXZYxOOAw+6B/ujn6mvqVAOo71zHw18F2vgHwbp2gWyrm3iBmYfxynlj+ddRgCgBaKKKACiiigBKWiigApKWigAooooASloooAKSlpD0oAZO0iQSPDGJJFUlELY3HHAz2rxbwv8AET4mePW8YW+k6do2n3OkXn2G385jJH5iMwcbv4jwvbAzXrWveIdM8M6XNqmsX9vYWUIy808gQZ7AE9Sew6mvKf2W9U0/VfBOoXsd3byanqOq3OoXtusqtJCXbjcucgEDjNAHrum/axY2w1AxfbPLXzvL+5vxzj2zVykCgdKWgApKWigAooooAShlDdaWigD50/am8CXVk2nfEzw8rRanpLoLpo+C0YPyv/wE8H2PtXsPw08bW/xA8Gadr9uV3TxgTIv/ACzkHDD8/wCdbms6Xba3plzpt5EsttdRtFIrdCpGDXzZ8AdRufhf8VNf+GGpyMLeeRpbEv0JHIx9V/UGgD6gGe9LTV6U6gBKWiigApKWigAooooASloooAKKKKACiiigAooooAKKKKACiiigAooooAKKKKACiiigAooooAKKKKACiiigAooooAKKKKACiiigAooooAKKKKACiiigAooooAKKKKACiiigAooooAKKKKACiiigAooooAKKKKACiiigAooooAKKKKAEYgKSeg9a+Wfhgp+MH7Reu+NJh52l6GxW0J5X5SUix9cM/wBSa9t+OHio+DvhZ4g1SOTZcG2NvAQefMk+QEfTdn8K5D9k3wmPD3wrg1GRNtzrMz3bEjnywdiD8gT/AMCoA9oAxS0UUAFFFFABRRRQAUUlLQAUUUlAC0UUUAFFJS0AFIaWuc8feMbTwJ4U1DX7xhstoiUU/wAb/wAK/nQByvif446J4c8fWXgdNN1HVdWuiiFbMIUiLHgNuYdB8x44FekLgkEjnvmvm39lzwfeeIta1f4p+IFMl3fyulmZO2T87j/0EfQ19LBQO1AC0UlLQAUUUlAC0UUUAFFJS0AIRXzV+1Xok/hrXPDfxJ0pStxY3CQ3DJwSAcrk+/K/jX0tXF/GLwsnjH4ca3pRTfKbZpoeOQ6DcMe/GPxoA6Lw5rVv4i0Kw1e0YPBeQJOhHTDDNaVeH/sk+KJNa+Gh0q4fNxo1y9sQeoQ/Mv4ckfhXt4oAWikpaACiikoAWiiigAopKWgAooooAKKKKACiiigAooooAKKKKACiiigAooooAKKKKACiiigAooooAKKKKACiiigAooooAKKKKACiiigAooooAKKKKACiiigAooooAKKKKACiiigAooooAKKKKACiiigAooooAKKKKACiiigAoNFIaAPnH9s3WJ5ND8OeF7XLzalemYovUlQFQfiZD+Ve++G9Gh8O6Bpuj24AisLWK2THGQihc/pXzl8Ws+Kv2pfBWh53JYeRKydvlLTnj6KK+nVoAdRRRQAUUh+uKz77xBpOloz3up2Vuq9TLMq4/WgDRorgNV+PHw20cH7R4u012HVYZPMYfgua5PUf2ufhnZZFvd6hfEf88rVlz/31igD2uivnS5/bN0B8jTfCmu3R7Fwig/kTWef2tfE1+xXSvhleS+jPO5P5CP8ArQB9N0V8yH49fGzUP+Qb8LyAeha3mk/kRR/wsn9pS94i8C2NuD0JspAR/wB9SUAfTdFfMn9u/tR3fMekafBn/plEMf8AfTGjb+1XP0NhD75tB/OgD6bor5k/s39qxuf7Us19v9C/+JoOjftWH/mO2Y/Cy/8AiKAPps18tfH3Xbv4qfEjSfhboMxaCCYNfOh4D9Tn/dX9TWT428SftHfD7RX1nxB4itbezVxGCq2bF2J6BQmT/wDWrnfhl4J+NcTv468K2UDz6qrMbq6eAySAtkkK5yMn0AoA+yPDmhWnhrRbHR7CNY7aziWFFAxwBitWvmT+1v2pbbl9MsJsf9M4Dn/vlhR/wsH9pix/1nguwucf9ObNn/vmQUAfTdFfMg+OPx1sOdR+F+4DqUtJkB/U0f8ADVvjLTjt1X4X3SAdSs0i4/Axn+dAH03RXzjb/tl6VHj+0vBuuW3r5ZVsf99Fa3NO/bA+HF2R9pOq2Of+etsWx/3wTQB7lRXnGl/tC/DLVseT4ssYSe1yTCf/AB7FdfpvizQNYQPp+s6fcqehjuFbP60AbFFNRg3IIIPQinUAFNYBgQRkEYINOpDQB8w/ARj4K+Pfjbwa3yQXG+aEHjdsfIx9VkJ/Cvp4V8w+Nh/wiv7X3hzUQdkerJGjDoDvjaH/ANCAr6eHSgBaKKKACiiigAooooAKKKKACiiigAooooAKKKKACiiigAooooAKKKKACiiigAooooA84+Plx4m0/wCHd9qvhXU7iwv9PK3DGEAmSMfeHIP1/Cui+HHiqPxr4H0fXkYFru2VpOc4cDDA++c1uajYwanY3FjcoJILiNopFPdWGD/OvFf2b55vDGoeLPhvesfN0S+aa2BGN0Eh4I9s8/8AAqAOq+Pvji78C/D65uNLnMOrX0qWdiy/eEjnqM9wMn8K6zwTaapY+FNLh1u8mvNTFuhuZpcbmkIyc4HbOPwryfxkn/CyP2gdD8MBjJpvhWD+071RypmbBRT74Kfg5r3RegoAUdKK57x1oWq+JfDF7pWi63NoV/Ps8q/hBZocOGOACOoBHUda8l/4UT8Vf+i5ax/34k/+O0Ae90V5T8PPhj468J+I01LxB8TdQ8R2QieP7DPEyqWOMNkyN0+lerUAcF8WvGl34Y0e107Rvn17WrhbGwUdVZusn0Uc/lXX6LZ3Gn6Va2t3eS3txFEqyXEmN0rAcsce9eQTT/8ACTftSRWcx3QeG9GM0SdllkIyfyZfyrsfiz4+k8E6JFDpsX2rX9Vf7JptqpGXlb+M+y9TQB5V+0r8cNZ8NuuheDryS3mtZUGo38Kg+S7AlIQTxkhWJ+lfRy5HevlT49eA18CfAWwguH+06vea3Dc6jdnlp52imyc+g6D2FfVNxMltbyTyEKkaF2J7ADJoA86g8RarrPxtu9Jtb+ePRtG01XuYUA2SzSH5c8ZyAOnvXFTah8Xfi1rGpt4b1L/hC9CsZzDBLcW7Ca5I6nBGcciun+AcL6pY+IfGcwHmeINTlmibOQYUOxCPYgV3PjO78S2ehSyeE7GyvdWLosUV65WLaSNzMQQeBnpQB5n8OPHvjDQ/iIfhn49nt9QvntBdWOoQDaZ0AOdw9Tsb8RXRa/4o1TwT8S9NTUbySbw74gX7NEHAxZ3S8gA+jD1715x8ONRvLf42TXXxTtbix8Y3kBt9JIRfsRgGeI3Un5jluvrzya7z9pTThdfCbVL1fluNMeK9hcdUdXGCPzoA9SXqKdXkmsfDrT/jp4P8Lavfa5q+nbbMTK2nyKnm+Yq53ZB9P1NeO/B34F2PxGstduNR8UeJLZtN1WWwjFvcqA6JjBbcp5oA+vaK+QrH4G2Vz8Zr/wACv4n8SLYW1gt2s4uR5pY9j8uMfhXXfFqw1vSfiL8P/CnhvV7m2mutPl00XcjZdIzkNJxgbwoJBoA9v8b6Pq2vaFJp2j6r/ZU0zqslyq5dYs/Pt9GIyAe1eYfDK6sbP4l3WjeEvFGo63o0Fq/9opfXJmMN0GwNhb5vXOOBWpo3w61T4OaRqOoeFbnU/FV1cSxST2uozBnMYJ8zysbRvIPf0FRaPNeeOviDouuad4P1nw3Z6Ws32u41S1W1kuSwwIwgJLDPOTxQB6+oNLSL0paACiiigAooooAKKKKACiiigAooooAKKKKACiiigApDS0hoA+ZNCX+2/wBsrU7g/MdPtZCPbbEsf/s9fRGt+INJ8OWjXerajbWMC5y88gUH6Z618Zax478QeDf2g/GV14YsFvtZvbifTrZDGZCpaRTkKOp+TvxzzXougfsz+JvHd2Nc+KniS8kmlw/2CGXcyD+6z/dX6KPoaAOn8Vftb+CdHka30WK8125B2jyF2oT7E9fyrlD8Zfjj46JHhTwT/Z1uxwJpoTwPXL4/QGvbvCnwl8FeC0VdG8PWUMijHnOnmSN9WbmuwQKAAoAA6AdqAPmMfB346+Mhu8R+O/7NjbrHDMTgenyYq/p/7G+lzyLP4i8V6rqMn8QHGfxJJr6PooA8f0v9lj4Y6ZgvpNxekdftM7MD+AxXW6d8Hfh/pWPsnhLSkx03Q7//AELNdnRQBm2nh3RbID7LpGnwY6eXbouPyFaIUKAAAAOgFLRQAUlLRQAUUUUAJRilrh/jH4q1Twd8PNW1TRrK5utQWPy4fIjLmEnOZGA6Koyc/SgDwj4pahc/HX406f4B0uRm0fR5SbuRDlS4/wBa34fdHvmvqTTrC30qxt7C0iEVvbxrFGijgKBgV4t+yz8N38LeEf8AhJ9SRv7W14CfL/eSA8qP+Bfe/Fa90oAKMUUUAJRilooAo3OiaXeZ+06ZZT56+bArfzFYGo/CnwLqmftfhTSJN3Xbbqn/AKDiutooA8o1X9mL4X6nnGgGzJ/59ZmX+ea47U/2NPDLSGbRfEGraZIPuch8fjwa+iKKAPmL/hQnxh8JnzPC/wAQ3uQPuxTTOP8A0LIpp+In7QngLP8AbvheLW7WPrLFFuLD/eTn9K+n6RqAPn3w5+2B4cnnFn4o0fUdDuRw5K71B9xwR+NeyeGvG/h3xjbi40HWbPUExkiKQbh9V6io/Evw/wDCvi6Aw63oNheqf4pIhuHuD1BrxLxX+yh/ZlwdY+G+v3ejX8Z3pbSysYyR2Dj5l/HIoApftSr/AGV8Tfh1ry/K0dyi7v8ArnOj/wDs1fTi9K+BPi5438cahNo3h3x7ZeVqehzO6XLLteZG2ckj5W+5kMPWvvtenPWgApaKKACkpaKACiiigBKWiigAooooAKKKKACiiigAooooAKKKKACiiigAooooAKKKKACvDPijLF8NfjN4Z+IDkQ6bqsT6TqknQA4yjE/gv4JXudY/ifwnonjHT/7N1/TYNRs94kEUucBh0IxyDyaAPNf2c9LuL/RtZ8falGy3/iu/ku1D9Ut1YiNfoOfwxXsQqtpunWuk6fbafYwJb2ttGsUMSD5URRgAfhVmgDnvHXgvTviD4XvfDeqyXMdlebPMa2YLJ8rq4wSCOqjtXkv/AAxh8Ov+gh4l/wDAqL/41XvdFAHlXw8/Zz8IfDLxGuv6LeazJdrC8O27mjdNrYzwqA549a9VoooA8O02MaP+1fqvn/L/AGzoSNBn+IqVBA/79Gtf4ofA28+Ifimy8RWHjS/8PXVnAYIzaREuuTkkOJFIzUvxq0O6sbjRPiDpULSX3huYvPGg5ltW4kX3wOfzr0nS9StdZ0621GylWW2uY1ljdejKRkUAfIf7Qfwl8Q+BfA9vqerfEjXfE9u9/HALO+aQxoxSQiQbpWGQFI6fxGvXPEmlax8I/g1r1rfeL9S8SahfSeTbXd8HMiPKFjVBudjgHnr3Neo+KvB2heNdOXTfEOmw6jZpKJlhlzgOAQG4I7MfzqfWfD2meIY4ItVs47uOCZbiNXzhZF+63HpQBS8FeHh4V8E6VoluiRvZ2aR4xwJMZP8A48TXnHgf4+wRXuraD8S7nTvDut2FyyKHBhimi/hZSxOT+NezY4rnfFPw78KeNih8Q6DZai0ZG15Ewwx/tDBxz0zQB4z4x8R2Hxh+LvgzTPB8keo2+hXBv73UocmOJQV+VX75x+eK7/8AaK1JdN+D3iElwjzwrAnuzMOPyBrs/DvhPQvCVn9j0PSrXToeMrAmM/U9T+NedfEe1b4j+PNE8EQDfp+myLqmrNj5Rt/1cZ9yefpQB2vww0qTQ/h54c02bPmWunwxtkY5CivOP2Wv+QT4y/7GK5/pXtiIERUVcKBgD0rJ8PeE9F8KR3Uei6fFYpdztczrGT+8kbqxyepoA8n0f/k6zWP+wLHR8Tf+Tjvhl/1zuf8A0CSvWY/CeiQ+IpfEkenRLq8sQge6GdzIOi9cYov/AAnomqa5Ya7eadFNqenBha3LZ3QhgQcc45BNAGwOlFIKWgAooooAKKKKACiiigAooooAKKKKACiiigAooooAKKKKACkPSlpDQB8Sv4+g+Fv7THifXL2w+22rXlxDKFGXiR3B3p/tDGPoTX114P8AHfh3xzp6X2g6rbXsTAZVGw6H0ZeoPsa+drLR9NuP2tNf0bWLKC7tNUtJVaGZcq25Ek/9l6itzxP+ylLpt8+sfDfxDdaJdgllt5HO36Bhzj2ORQB9HUV8uJ8SPjv8MCIfFHhv/hILKPj7TGhYkeu5P6ium8Pftf8Agu+YQ63Yalo84OG3J5ig/UcigD32iuM0L4veA/EQB07xTpchb+F5hGfp82K622uYLqISW88cyHo0bBh+YoAmooooAKKSloAKKKSgBaKKKACikpaAI0RY1CqoCgYAHAAqSikoAWiiigAopKKAFoopKAFopKbLIkaF5HVFXksxwBQA+iuX1r4m+DPD6FtS8TaVBjqPPViPwXJrzjxF+1x8PtI3JpzXurzDgCCPajf8Cb/CgD2+szX/ABBpXhuxe+1fULextoxlpJnCivnOX45fF34iMbfwN4Kl0+B+BdTxkkKe+5sL+Wam0n9mTxX4zvU1P4oeLLi6Od32SCQtj2z0H4CgDy/9ov4t6X8V9f0200S0P2HTy8SXrph7guVz9FGOPcmvuhelfJPx98G6D4b8WfDrwj4f02G0ie6UsqDLSGSaNMsepPymvrZelAC0UlLQAUUUlAC0UUUAFFJS0AFFFFABRRRQAUUUUAFFFFABRRRQAUUUUAFFFFABRRRQAUUUUAFFFFABRRRQAUUUUAMdFkUqyhlPBBHWkijSFFjjRURRgKowBUlFABRRRQAUUUUAIelRxwRxytKsaK7/AHmAALfU96looAKKKKACiiigAooooAKKKKACiiigAooooAKKKKACiiigAooooAKKKKACiiigApDS0h6UAfMXxJP/AAi/7WfhDVyMJqawxk9iXDW+P1FfTi182/tjadNp8XhPxfaArPp14Yi4HIPEkf5FGr6H0bUoNY0qz1K2OYLyCO4jIOfldQw/nQBbdQ42kAg9Qa5vXvhv4R8TqRrHh3TLwn+KSBdw+hxXTUUAeI65+yN8OtUZns49R0pyc5trgsAfo+RXK3H7Jev6RMZvC3xFvrUr91JkYH/vpWA/SvpiigD5j/4QD9pPwzzp3i+11ZF+6r3W8n8JUx+tIPHP7TPh85v/AAfDqSr3SGOTd/35fNfTtFAHzH/w0x8TtJ/5DnwpvY8feK21xEPwLA0+L9tWyhfy9T8EahaOOoF0CfyKCvpgjmo5YI512SxrIp/hYAj9aAPALT9tHwNIf9K0fXof9yON/wD2cVq2/wC1/wDDObAZtZg/37Qcfkxr1W68G+Gr0H7V4d0e4B6+bZRtn8xWXP8ACP4fXIPmeCPDfPddOiU/otAHHQ/tWfCqXG7W7qL/AH7KX+gNW4/2nfhNJ/zNiqfRrK4/+N1rTfAf4ZT53+C9JH+7GV/kRVWT9nT4VS/e8G2Q/wB2WVf5PQBEP2k/hQR/yOFv/wCA0/8A8bp3/DR/wp/6HC1/78Tf/EVGf2aPhOx58Hwf+Bdx/wDHKZ/wzH8JP+hQT/wOuf8A45QBKf2k/hQDg+MLf8Laf/43UL/tOfCVP+ZtRvZbK4P/ALTp4/Zm+Eo6eD4fxvLj/wCOVLH+zj8Ko/u+DrQ/708x/m9AGbN+1V8KYs7denk/3LKX+qis+f8Aa8+GUJ+SfVpv9yz/AMWFdbD8BPhjDjb4L0o/7ys38ya0IPg/8O7bGzwP4dOP7+nxP/MGgDzC6/bP8Ax5FvpfiCY/7UMaA/8AkQ1j3H7bGkl9lh4O1G5c9Fe5VCfyVq96tfAvhSyx9l8MaHb46eVYRLj8lrWgs7e1Xbb28UK/3Y0Cj9KAPmv/AIak8f6sP+JH8K7+XP3SYp5v/QVFN/4WX+0hr/Gm+A49Oz0323l4/wC/z19N4PpSigD5kHhT9pzxN/x++ILPRlbqBcJGV+nlKf50qfss+NtfcS+KviTdTHukQeQn/gTMP5V9N0UAeD6N+x94DsXEup3Grau/UiacICf+AAfzr0bw98IvA3hfa2l+F9NhkX/lo0Qd/wDvo812VFADIokhQJGioo6KowBSnrTqa+e1AHzH8Rj/AMJT+1r4S0pfmGlrDIwHQbA8/wDhX06K+Yfg1/xXH7SHjHxV/rLfT0kihbrtLMETn/dRq+nhQAtFFFABRRRQAUUUUAFFFFABRRRQAUUUUAFFFFABRRRQAUUUUAFFFFABRRRQAUUUUAFFFFABRRRQAUUUUAFFFFABRRRQAUUUUAFFFFABRRRQAUUUUAFFFFABRRRQAUUUUAFFFFABRRRQAUUUUAFFFFABRRRQAUUUUAFFFFABSUtFAHm/7QnhU+LPhJr1rHHvuLWH7bDxk7ovmOPqoYfjWV+y74rXxL8JdOgeTdc6UzWMmTzhTlP/ABxlH/ATXrUqLLGyOoZWBBVhkEehr5e+BsrfCr44+Jvh1cs0dlfOWs93Q4y8R/GNiPqPagD6jpaapHanUAFFFFABRRRQAlLRRQAUlLRQAUUUUAJS0UUAFJS0UAFFFFACUtFFABSUtFABRRRQAlLRRQAVyvxQ8Tp4O8Ba1rLvta3tX8vnq7DauPxNdSTjrXzl+1x4jm1GHQfAGmMXu9VuVkkReeM7VB/E5oA0/wBkHw1Jp/gO98QXCH7RrV40gYjkxp8o/Xcfxr3oVjeDPD0PhTwtpeiW67Y7K3SED3A5/WtqgBKWiigApKWigAooooASloooAKKKKACiiigAooooAKKKKACiiigAooooAKKKKACiiigAooooAKKKKACiiigAooooAKKKKACiiigAooooAKKKKACiiigAooooAKKKKACiiigAooooAKKKKACiiigAooooAKKKKACiiigAooooAKKKKAEOe1fN/wC1V4Yu9C1DQPibo6FbvS50huWTrtDbo2PsDlf+BV9I1k+K/Dtn4t8O6hol+ge3vYWibPbI4P4GgCHwX4otPGXhjT9esnBivIVkwP4Gx8y/gc1tg56V8xfs5+Jr74e+M9W+FXiKTYVmZ7J34Bb0Hswwa+nVoAWiiigAooooAKKKKACiiigAooooAKKKKACiiigAooooAKKKKACiiigAooooAKKKRiFGaAIb26hsbWW5nkEcUSF3YnhVAyTXzB8IoJfjF8ctY+IF2jPpmlN5dluHGfup+mW/Guq/ao+Ik2l6Ha+CdFZn1fXSEdI/vJCTj/x48D8a9D+Dnw/i+HXgPT9HCqLsr5124/ilbk/l0/CgDt1p1IoI60tABRRRQAUUUUAFFFFABRRRQAUlLRQAUUUUAFFFFABRRRQAUUUUAFFFFABRRRQAUUUUAFFFFABRRRQAUUUUAFFFFABRRRQAUUUUAFFFFABRRRQAUUUUAFFFFABRRRQAUUUUAFFFFABRRRQAUUUUAFFFFABRRRQAUUUUAFFFFABRRRQAUhGRS0UAfP37Tvw4vZ7a0+Ifh1TFrGilXmMX3niByG+qn9K9F+DvxMsvib4Pt9ViZVvYgIr2AHJjlA5/A9RXcTxJPE0UqK8bgqysMgg9Qa+TvE2m6r+zD8T08S6RDLceD9YfbcQL0QZyU9mXkqe449aAPrRW3ClrN0HXdO8RaRa6rpdylzZXSB4pEPBB/kfatEHNAC0UUUAFFFFABRRRQAUUUUAFFFFABRRRQAUUUUAFFFFABRRRQAUUUhOKAAtgc1ieM/F2l+CfDl7r2rS+Xa2kZYjPzSN/Ci+rMcAf4ZrWubiK3geaaRI44wWZ2OAoHUk18oeMtX1T9pr4kweE9Dlkh8KaTJ5lzcqOGwcNJ7kjIUfU9zQBp/APwvqfxX8eaj8W/E6ZhSYpp8LcrvHA25/hQYA9+fWvqFQQOTmqGgaLYeHdHtNI0u2W1srOJYYYl/hUD9T6nucmtCgAooooAKKKKACiiigAooooAKKKKACiikoAWiiigAooooAKKKKACiiigAooooAKKKKACiiigAooooAKKKKACiiigAooooAKKKKACiiigAooooAKKKKACiiigAooooAKKKKACiiigAooooAKKKKACiiigAooooAKKKKACiiigAooooAKKKKACiiigBCM1j+LPCul+MtAu9E1i3E9ndLtYfxKezKezA8g1s0jDNAHyX4V8Ra7+zD42fwx4jaW78JX8ha2ugDhAT99fQ/3l/GvqrTtRtdTsob2yuI7m2nQSRSxnKup6EGsPx94B0X4h6BNoutW4kicbo5VHzwv2ZT2NfOHh7xV4s/Zh8Rjw74njm1LwjdSE212oJCDP3k9x3SgD61ByKWs3Qdf0zxFpNvquk3kV5ZXCho5Y2yG9vr7VoqwagBaKKKACiiigAooooAKKKKACiiigAooooAKKKKACiikJwKAAnAzjNNeRUUszBQBkk9AKZc3UFrbyT3EscMMal3kkYKqKByST0Ar5i+JXxf1z4v68fh98L0lktpcrd6ioKiRRwcN/DGPXv29wB3xe+KGr/FXxCPhp8PWaaGR9l9exn5WAPI3Dog7nvXtnwq+GWlfDHwxDpNgoe4OHurkj5p5O5PsOgHaqXwh+D+kfCvRhBbAXGpzAG6vWHMjeg9FHYV6CBgmgAUYFLRRQAUUUUAFFFFABRRRQAUUUUAFFFFABRRRQAUUUUAFFFFABRRRQAUUUUAFFFFABRRRQAUUUUAFFFFABRRRQAUUUUAFFFFABRRRQAUUUUAFFFFABRRRQAUUUUAFFFFABRRRQAUUUUAFFFFABRRRQAUUUUAFFFFABRRRQAUUUUAFFFFABRRRQAUUUUAFFFFACEZrH8VeE9G8ZaPNo+u2Ud5ZzDlHHKnsynqGHqK2aQjNAHydqXhT4gfsyaxPrPhaWXW/CMz7p7Z8kIP9tR91u28fjXufwy+M/hb4m2SnS7oW9+ozNYTkLLEe+B/EPcV3csEc0bRyKro4KsrDIYehFeCfEr9mKzvL8+Ivh/eNoGsofMEUbFYmb/Zx9w/pQB77uPpSqdwz0r5h8OftC+LvhrfR6B8V9DuiEOxNQjT5iPX0f8Oa9+8J+PfDnja0W60DVbW+QjLKjfOn1XqKAOhopu4+1OoAKKKKACiiigAooooAKKKKACimk/Ss7XPEmkeGrJ73WdRtbG2QZMk8gUfh6/hQBpMcDPWuY8c/Ebw58PdLe/1/UI7dcfu4QcySn0Veprxjxl+1Jc65eN4f+GGi3GrX0nyreNGSq+6r/U4FReCv2a9Y8Vaqvib4r6rPf3TneLASZA/2WPYewoA5291b4h/tQao+naTFJoPg2OT97IxIWQA9XP8Ay0bvtHAr6H+HPwz8PfDTRV0vRLXYzAG4uX5luGHdj/IDgdq6PTdIsdHsYbHT7aK1tYBtjiiUKqj2Aq2BjvQAAYpaKKACiiigAooooAKKKKACiiigAooooAKKKKACkpaKACiiigAooooAKKKKACiiigAooooAKKKKACiiigAooooAKKKKACiiigAooooAKKKKACiiigAooooAKKKKACiiigAooooAKKKKACiiigAooooAKKKKACiiigAooooAKKKKACiiigAooooAKKKKACiiigAooooAKKKKACkIyaWigDL1/wAM6P4osXsNa0+3vrZxgpMgb8vSvB/Ff7J32K+bVvhz4iudCvFO5LeWRimf9lx8y/jur6MpCgPWgD5aj+LPxs+En7nxv4XfXdNi/wCX5F3fL6+dGCP++xmu68K/tbfDzXgseozXehznqLqItHn2dM/mQK9r2gjB6VxXij4LfD/xiWk1bwxYNO3JngXyJCfUsmCfxzQBvaH4x8O+JoxJouu6ZqQP/PtcpIR9QDkfjWtv6Z4zXzzrf7GPhS5kMuia7q2mPnKiQLOqn2+6R+dZY/Z2+Lnh7jw38U7gwp9yKW6njHt8nzLQB9NlsCjd9Pzr5l/4RX9qLTRttfFFrdqP7zWzZ/77TNAtf2rl4E9i3vusqAPpndRu4r5m/wCEe/amvxtn1+0tFP8Ada0H6qhNNPwI+N+vf8hr4ny28bfejivZ/wD0FQFoA+jdV1/SdBg8/V9UsdPi/wCel1OsS/mxFeZ+KP2o/hp4dV0h1WTWJ1/5Z6fEXH/fZwuPoTXFaV+xhorz+f4i8WarqUjcv5KLGSf95ixNemeGf2fPhr4VZJbTwxaXM6/8tr7Nw2fXD5UH6AUAeRXH7QfxO+Jcj2nw38GTW8DHb9tkXzdvvvbEa/TmrOifsweJfGN8urfFLxZc3chOTZ20hc/QueB9FH419KxW8UEaxRRrHGgwqKMBR6ACnhQOnFAHPeEPh/4a8CWQs/D+lW9lH/Eyrl392Y8k/WuhC4paKACiiigAooooAKKKKACiiigAooooAKKKKACiiigAooooAKKKSgBaKKKACiiigAooooAKKKKACiiigAooooAKKKKACiiigAooooAKKKKACiiigAooooAKKKKACiiigAooooAKKKKACiiigAooooAKKKKACiiigAooooAKKKKACiiigAooooAKKKKACiiigAooooAKKKKACiiigAooooAKKKKACiiigAooooAMUm0UtFACYFGBilooATFLgUUUAJgUtFFABRRRQAUUUUAFFFFABRRRQAUUUUAFFFFABRRRQAUUUUAFFFFABRRRQAUUUUAFFFFABRRRQAUUUUAFFFFABRRRQAUUUUAFFFFABRRRQAUUUUAFFFFABRRRQAUUUUAFFFFABRRRQAUUUUAFFFFABRRRQAUUUUAFFFFABRRRQAUUUUAFFFFABRRRQAUUUUAFFFFABRRRQAUUUUAFFFFABRRRQAUUUUAFFFFABRRRQAUUUUAFFFFABRRRQAUUUUAFFFFABRRRQAUUUUAFFFFABRRRQAUUUUAFFFFABRRRQAUUUUAFFFFABRRRQAUlLRQAUUUUAFFFFABRRRQAUUUUAFFFFABRRRQAUUUUAFFFFABRRRQAUUUUAFFFFABRRRQAUUUUAFFFFABRRRQAUUUUAFFFFABRRRQAUUUUAFFFFABRRRQAUUUUAFFFFABRRRQAUUUUAFFFFABRRRQAUUUUAFFFFABRRRQAUUUUAFFFFABRRRQAUUUUAFFFFABRRRQAUUUUAFFFFABRRRQAUUUUAFFFFABRRRQAUUUUAFFFFABRRRQAUUUUAFFFFABRRSUALRRRQAUUUUAFFFFABRRRQAUUUUAFFFFABRRRQAUUUUAFFFFABRRRQAUUUUAFFFFABRRRQAUUUUAFFFFABRRRQAUUUUAFFFFABRRRQAUUUUAFFFFABRRRQAUUUUAFFFFABRRRQAUUUUAFFFFABRRRQAUUUUAFFFFABRRRQAUUUUAFFFFABRRRQAUUUUAFFFFABRRRQAUUUUAFFFFABRRRQAUUUUAFFFFABRRRQAUUUUAFFFFABRRRQAUUUUAf/9k=;" vertex="1" parent="7">
                    <mxGeometry x="485" y="95.5" width="258" height="129" as="geometry"/>
                </mxCell>
                <mxCell id="15" value="&lt;span style=&quot;font-size: 20px;&quot;&gt;Volume is: ____&lt;/span&gt;" style="text;strokeColor=none;fillColor=none;html=1;fontSize=24;fontStyle=1;verticalAlign=middle;align=center;" vertex="1" parent="7">
                    <mxGeometry x="-10" y="170" width="210" height="40" as="geometry"/>
                </mxCell>
                <mxCell id="8" value="Volume of a sphere" style="rounded=0;whiteSpace=wrap;html=1;" vertex="1" parent="7">
                    <mxGeometry y="20" width="760" height="60" as="geometry"/>
                </mxCell>
            </root>
        </mxGraphModel>
    </diagram>
</mxfile>